<svg width="19" height="21" viewBox="0 0 19 21" fill="none" xmlns="http://www.w3.org/2000/svg">
<path fill-rule="evenodd" clip-rule="evenodd" d="M3.5 1.51667H11.6667C12.762 1.51667 13.65 2.40464 13.65 3.5V3.90833C13.65 4.32715 13.9895 4.66667 14.4083 4.66667C14.8272 4.66667 15.1667 4.32715 15.1667 3.90833V3.5C15.1667 1.567 13.5997 0 11.6667 0H3.5C1.567 0 0 1.567 0 3.5V17.5C0 19.433 1.567 21 3.5 21H11.6667C13.5997 21 15.1667 19.433 15.1667 17.5V17.0917C15.1667 16.6728 14.8272 16.3333 14.4083 16.3333C13.9895 16.3333 13.65 16.6728 13.65 17.0917V17.5C13.65 18.5954 12.762 19.4833 11.6667 19.4833H3.5C3.26939 19.4833 3.04797 19.444 2.8421 19.3716L5.44538 17.884C6.15422 17.479 6.59167 16.7252 6.59167 15.9088V4.96349C6.59167 4.14709 6.15422 3.39328 5.44538 2.98824L2.98725 1.58359C3.1508 1.53994 3.32269 1.51667 3.5 1.51667ZM13.8395 14C13.6878 14.1633 13.4895 14.245 13.2795 14.245C13.0929 14.245 12.9179 14.1867 12.7662 14.0467L9.60452 11.0419C9.24285 10.7152 9.24285 10.1552 9.60452 9.82858L12.7662 6.95333C13.0812 6.67333 13.5595 6.69667 13.8395 7C14.1195 7.315 14.1079 7.79333 13.7928 8.07333L11.9839 9.67691H17.7479C18.1667 9.67691 18.5062 10.0164 18.5062 10.4352C18.5062 10.8541 18.1667 11.1936 17.7479 11.1936H11.9756L13.7928 12.9267C14.0962 13.2067 14.1195 13.685 13.8395 14Z" fill="#6DB49B"/>
</svg>
