<svg width="387" height="358" viewBox="0 0 387 358" fill="none" xmlns="http://www.w3.org/2000/svg">
<path d="M35.843 307.058V166.578C35.843 156.753 27.8781 148.788 18.0528 148.788C8.22761 148.788 0.262695 156.752 0.262695 166.578V307.058C0.262695 335.179 23.0588 357.975 51.1793 357.975H335.822C363.942 357.975 386.738 335.179 386.738 307.058V166.578C386.738 156.753 378.773 148.788 368.948 148.788C359.123 148.788 351.158 156.752 351.158 166.578V307.058C351.158 315.529 344.292 322.395 335.822 322.395H51.1793C42.7093 322.395 35.843 315.529 35.843 307.058Z" fill="currentColor"/>
<path d="M211.29 253.381V68.1083L264.039 120.827C270.989 127.772 282.253 127.769 289.199 120.82C296.144 113.87 296.141 102.606 289.191 95.6606L205.117 11.6349C198.7 5.22189 188.3 5.22189 181.883 11.6349L97.8085 95.6606C90.859 102.606 90.8558 113.87 97.8012 120.82C104.747 127.769 116.011 127.772 122.96 120.827L175.71 68.1083V253.381H211.29Z" fill="currentColor"/>
</svg>
