<svg viewBox="0 0 359 358" fill="none" xmlns="http://www.w3.org/2000/svg">
<path fill-rule="evenodd" clip-rule="evenodd" d="M178.57 4.01455C179.989 6.22541 179.989 9.11264 179.989 14.8871V83.1285C179.989 88.7633 179.989 91.5806 178.988 93.5166C178.316 94.814 177.705 95.5519 176.554 96.4525C174.838 97.7962 171.538 98.4196 164.937 99.6666C127.616 106.717 99.3892 139.494 99.3892 178.864C99.3892 223.378 135.475 259.464 179.989 259.464C214.109 259.464 243.277 238.263 255.039 208.316C257.03 203.246 258.026 200.711 259.354 199.387C260.24 198.504 260.936 198.029 262.083 197.527C263.801 196.775 266.093 196.775 270.678 196.775H341.504C347.805 196.775 350.955 196.775 353.262 198.381C354.537 199.269 355.708 200.691 356.336 202.112C357.472 204.683 356.912 207.558 355.792 213.306C339.734 295.748 267.129 357.975 179.989 357.975C81.0688 357.975 0.87793 277.784 0.87793 178.864C0.87793 85.0387 73.0199 8.06358 164.86 0.382176C170.224 -0.0664373 172.905 -0.290744 175.227 0.939362C176.518 1.62335 177.781 2.78522 178.57 4.01455ZM179.989 286.33C223.361 286.33 260.732 260.637 277.712 223.641H325.542C306.421 285.871 248.488 331.108 179.989 331.108C95.9069 331.108 27.7446 262.946 27.7446 178.864C27.7446 103.949 81.8539 41.6714 153.123 28.982V74.7824C106.771 86.7124 72.5225 128.788 72.5225 178.864C72.5225 238.216 120.637 286.33 179.989 286.33ZM208.562 7.10643C206.856 9.45862 206.856 12.751 206.856 19.3357V86.7952C206.856 92.7912 206.856 95.7892 207.697 98.0526C208.294 99.6594 208.733 100.434 209.804 101.772C211.313 103.657 214.662 105.663 221.359 109.676C238.691 120.062 251.796 136.775 257.482 156.623C259.152 162.454 259.987 165.37 261.333 166.889C262.233 167.905 262.952 168.448 264.177 169.033C266.009 169.908 268.556 169.908 273.651 169.908H342.982C349.013 169.908 352.028 169.908 354.288 168.397C355.541 167.559 356.709 166.219 357.367 164.863C358.554 162.417 358.169 159.639 357.4 154.082C347.362 81.5501 293.891 22.8957 224.091 5.22238C218.159 3.72045 215.193 2.96949 212.494 4.04591C211.007 4.6391 209.502 5.81017 208.562 7.10643Z" fill="currentColor"/>
</svg>
