<svg width="22" height="20" viewBox="0 0 22 20" fill="none" xmlns="http://www.w3.org/2000/svg">
<path fill-rule="evenodd" clip-rule="evenodd" d="M9.77778 12.9478V0.5H12.2222V12.9478L17.9139 7.63898C18.3912 7.19378 19.1651 7.19378 19.6424 7.63898C20.1197 8.08418 20.1197 8.80599 19.6424 9.25119L11.8642 16.5061C11.3869 16.9513 10.6131 16.9513 10.1358 16.5061L2.35758 9.25119C1.88028 8.80599 1.88028 8.08418 2.35758 7.63898C2.83489 7.19378 3.60876 7.19378 4.08607 7.63898L9.77778 12.9478ZM0 18.36C0 17.7304 0.547208 17.22 1.22222 17.22H20.7778C21.4528 17.22 22 17.7304 22 18.36C22 18.9896 21.4528 19.5 20.7778 19.5H1.22222C0.547208 19.5 0 18.9896 0 18.36Z" fill="currentColor"/>
</svg>
