<svg width="543" height="116" viewBox="0 0 543 116" fill="none" xmlns="http://www.w3.org/2000/svg">
<path d="M61.4893 80.019V91.2163H11.293V80.019H61.4893ZM15.5518 80.019V108.299H2.05762L1.29199 80.019H15.5518ZM71.8252 80.019L70.5811 108.347H57.4219V80.019H71.8252ZM53.5938 21.5444V32.7896H20.0498V21.5444H53.5938ZM63.834 21.5444V91.2163H49.5264V21.5444H63.834ZM18.2793 21.5444H32.6348L30.7686 49.9204C30.4814 54.6099 29.971 58.757 29.2373 62.3618C28.5355 65.9347 27.6742 69.077 26.6533 71.7886C25.6644 74.5002 24.5638 76.8768 23.3516 78.9185C22.1393 80.9282 20.8633 82.6828 19.5234 84.1821C18.1836 85.6496 16.8278 86.9575 15.4561 88.106C14.0843 89.2225 12.7445 90.2593 11.4365 91.2163H3.20605V80.019H6.41211C7.33724 79.2534 8.31022 78.2007 9.33105 76.8608C10.3838 75.521 11.3727 73.7186 12.2979 71.4536C13.2549 69.1567 14.0843 66.2537 14.7861 62.7446C15.5199 59.2355 16.0622 54.9608 16.4131 49.9204L18.2793 21.5444ZM72.2597 65.855V64.8501C72.2597 61.0539 72.802 57.5607 73.8866 54.3706C74.9713 51.1486 76.5504 48.3573 78.6239 45.9966C80.6975 43.6359 83.2496 41.8016 86.2802 40.4937C89.3108 39.1538 92.788 38.4839 96.7118 38.4839C100.636 38.4839 104.129 39.1538 107.191 40.4937C110.254 41.8016 112.822 43.6359 114.895 45.9966C117.001 48.3573 118.596 51.1486 119.681 54.3706C120.765 57.5607 121.308 61.0539 121.308 64.8501V65.855C121.308 69.6193 120.765 73.1125 119.681 76.3345C118.596 79.5246 117.001 82.3159 114.895 84.7085C112.822 87.0692 110.27 88.9035 107.239 90.2114C104.209 91.5194 100.731 92.1733 96.8075 92.1733C92.8837 92.1733 89.3905 91.5194 86.328 90.2114C83.2974 88.9035 80.7294 87.0692 78.6239 84.7085C76.5504 82.3159 74.9713 79.5246 73.8866 76.3345C72.802 73.1125 72.2597 69.6193 72.2597 65.855ZM86.0409 64.8501V65.855C86.0409 68.0243 86.2323 70.05 86.6152 71.9321C86.998 73.8143 87.6041 75.4731 88.4335 76.9087C89.2948 78.3123 90.4114 79.4129 91.7831 80.2104C93.1549 81.008 94.8297 81.4067 96.8075 81.4067C98.7216 81.4067 100.365 81.008 101.736 80.2104C103.108 79.4129 104.209 78.3123 105.038 76.9087C105.867 75.4731 106.474 73.8143 106.856 71.9321C107.271 70.05 107.478 68.0243 107.478 65.855V64.8501C107.478 62.7446 107.271 60.7668 106.856 58.9165C106.474 57.0343 105.851 55.3755 104.99 53.9399C104.161 52.4725 103.06 51.3241 101.688 50.4946C100.317 49.6652 98.6578 49.2505 96.7118 49.2505C94.7659 49.2505 93.107 49.6652 91.7353 50.4946C90.3954 51.3241 89.2948 52.4725 88.4335 53.9399C87.6041 55.3755 86.998 57.0343 86.6152 58.9165C86.2323 60.7668 86.0409 62.7446 86.0409 64.8501ZM140.548 39.4409V91.2163H126.766V39.4409H140.548ZM174.187 39.4409L151.889 71.8364H138.107L136.432 59.1079H145.572L156.722 39.4409H174.187ZM157.344 91.2163L144.615 69.3481L156.626 62.6968L175.814 91.2163H157.344Z" fill="#6DB49B"/>
<path d="M209.075 21.5444V91.2163H194.767V21.5444H209.075ZM230.512 21.5444V32.7896H173.665V21.5444H230.512ZM243.101 49.394V111.123H229.32V39.4409H242.096L243.101 49.394ZM275.88 64.7544V65.7593C275.88 69.5236 275.433 73.0168 274.54 76.2388C273.678 79.4608 272.402 82.2681 270.712 84.6606C269.021 87.0213 266.915 88.8716 264.395 90.2114C261.907 91.5194 259.036 92.1733 255.782 92.1733C252.624 92.1733 249.88 91.5353 247.551 90.2593C245.223 88.9832 243.261 87.1968 241.666 84.8999C240.103 82.5711 238.842 79.8755 237.885 76.813C236.928 73.7505 236.195 70.4647 235.684 66.9556V64.3237C236.195 60.5594 236.928 57.1141 237.885 53.9878C238.842 50.8296 240.103 48.1021 241.666 45.8052C243.261 43.4764 245.207 41.674 247.504 40.3979C249.832 39.1219 252.56 38.4839 255.686 38.4839C258.972 38.4839 261.859 39.106 264.347 40.3501C266.868 41.5942 268.973 43.3807 270.664 45.7095C272.386 48.0382 273.678 50.8136 274.54 54.0356C275.433 57.2576 275.88 60.8306 275.88 64.7544ZM262.05 65.7593V64.7544C262.05 62.5532 261.859 60.5275 261.476 58.6772C261.125 56.7951 260.551 55.1522 259.754 53.7485C258.988 52.3449 257.967 51.2603 256.691 50.4946C255.447 49.6971 253.932 49.2983 252.145 49.2983C250.263 49.2983 248.652 49.6014 247.312 50.2075C246.004 50.8136 244.936 51.6909 244.106 52.8394C243.277 53.9878 242.655 55.3595 242.24 56.9546C241.825 58.5496 241.57 60.3521 241.474 62.3618V69.0132C241.634 71.3739 242.08 73.4953 242.814 75.3774C243.548 77.2277 244.68 78.6951 246.212 79.7798C247.743 80.8644 249.753 81.4067 252.241 81.4067C254.059 81.4067 255.591 81.008 256.835 80.2104C258.079 79.381 259.084 78.2485 259.849 76.813C260.647 75.3774 261.205 73.7186 261.524 71.8364C261.875 69.9543 262.05 67.9285 262.05 65.7593ZM304.355 92.1733C300.336 92.1733 296.731 91.5353 293.541 90.2593C290.351 88.9513 287.639 87.1489 285.406 84.8521C283.205 82.5552 281.514 79.8914 280.334 76.8608C279.153 73.7983 278.563 70.5444 278.563 67.0991V65.1851C278.563 61.2612 279.121 57.6724 280.238 54.4185C281.354 51.1646 282.949 48.3413 285.023 45.9487C287.129 43.5562 289.681 41.7218 292.679 40.4458C295.678 39.1379 299.059 38.4839 302.824 38.4839C306.492 38.4839 309.746 39.09 312.586 40.3022C315.425 41.5145 317.801 43.2371 319.715 45.4702C321.661 47.7033 323.129 50.383 324.118 53.5093C325.107 56.6037 325.601 60.049 325.601 63.8452V69.5874H284.449V60.3999H312.059V59.3472C312.059 57.4331 311.708 55.7264 311.006 54.2271C310.337 52.6958 309.316 51.4836 307.944 50.5903C306.572 49.6971 304.818 49.2505 302.68 49.2505C300.862 49.2505 299.299 49.6493 297.991 50.4468C296.683 51.2443 295.614 52.3608 294.785 53.7964C293.987 55.2319 293.381 56.9227 292.966 58.8687C292.584 60.7827 292.392 62.8882 292.392 65.1851V67.0991C292.392 69.1727 292.679 71.0868 293.254 72.8413C293.86 74.5959 294.705 76.1112 295.79 77.3872C296.906 78.6632 298.246 79.6522 299.809 80.354C301.404 81.0558 303.207 81.4067 305.216 81.4067C307.705 81.4067 310.018 80.9282 312.155 79.9712C314.324 78.9823 316.19 77.4989 317.754 75.521L324.453 82.7944C323.368 84.3576 321.885 85.8569 320.003 87.2925C318.152 88.728 315.919 89.9084 313.303 90.8335C310.687 91.7267 307.705 92.1733 304.355 92.1733ZM344.219 39.4409V91.2163H330.438V39.4409H344.219ZM377.859 39.4409L355.56 71.8364H341.779L340.104 59.1079H349.244L360.393 39.4409H377.859ZM361.015 91.2163L348.287 69.3481L360.297 62.6968L379.486 91.2163H361.015ZM403.798 92.1733C399.779 92.1733 396.174 91.5353 392.984 90.2593C389.794 88.9513 387.082 87.1489 384.849 84.8521C382.648 82.5552 380.957 79.8914 379.777 76.8608C378.596 73.7983 378.006 70.5444 378.006 67.0991V65.1851C378.006 61.2612 378.565 57.6724 379.681 54.4185C380.798 51.1646 382.393 48.3413 384.466 45.9487C386.572 43.5562 389.124 41.7218 392.122 40.4458C395.121 39.1379 398.503 38.4839 402.267 38.4839C405.936 38.4839 409.19 39.09 412.029 40.3022C414.868 41.5145 417.245 43.2371 419.159 45.4702C421.105 47.7033 422.572 50.383 423.561 53.5093C424.55 56.6037 425.044 60.049 425.044 63.8452V69.5874H383.892V60.3999H411.502V59.3472C411.502 57.4331 411.151 55.7264 410.45 54.2271C409.78 52.6958 408.759 51.4836 407.387 50.5903C406.015 49.6971 404.261 49.2505 402.123 49.2505C400.305 49.2505 398.742 49.6493 397.434 50.4468C396.126 51.2443 395.057 52.3608 394.228 53.7964C393.43 55.2319 392.824 56.9227 392.41 58.8687C392.027 60.7827 391.835 62.8882 391.835 65.1851V67.0991C391.835 69.1727 392.122 71.0868 392.697 72.8413C393.303 74.5959 394.148 76.1112 395.233 77.3872C396.349 78.6632 397.689 79.6522 399.252 80.354C400.847 81.0558 402.65 81.4067 404.66 81.4067C407.148 81.4067 409.461 80.9282 411.598 79.9712C413.767 78.9823 415.634 77.4989 417.197 75.521L423.896 82.7944C422.811 84.3576 421.328 85.8569 419.446 87.2925C417.595 88.728 415.362 89.9084 412.747 90.8335C410.131 91.7267 407.148 92.1733 403.798 92.1733ZM442.753 49.394V111.123H428.972V39.4409H441.748L442.753 49.394ZM475.532 64.7544V65.7593C475.532 69.5236 475.085 73.0168 474.192 76.2388C473.33 79.4608 472.054 82.2681 470.364 84.6606C468.673 87.0213 466.567 88.8716 464.047 90.2114C461.559 91.5194 458.688 92.1733 455.434 92.1733C452.276 92.1733 449.532 91.5353 447.203 90.2593C444.875 88.9832 442.913 87.1968 441.318 84.8999C439.755 82.5711 438.495 79.8755 437.537 76.813C436.58 73.7505 435.847 70.4647 435.336 66.9556V64.3237C435.847 60.5594 436.58 57.1141 437.537 53.9878C438.495 50.8296 439.755 48.1021 441.318 45.8052C442.913 43.4764 444.859 41.674 447.156 40.3979C449.484 39.1219 452.212 38.4839 455.338 38.4839C458.624 38.4839 461.511 39.106 463.999 40.3501C466.52 41.5942 468.625 43.3807 470.316 45.7095C472.038 48.0382 473.33 50.8136 474.192 54.0356C475.085 57.2576 475.532 60.8306 475.532 64.7544ZM461.703 65.7593V64.7544C461.703 62.5532 461.511 60.5275 461.128 58.6772C460.777 56.7951 460.203 55.1522 459.406 53.7485C458.64 52.3449 457.619 51.2603 456.343 50.4946C455.099 49.6971 453.584 49.2983 451.797 49.2983C449.915 49.2983 448.304 49.6014 446.964 50.2075C445.656 50.8136 444.588 51.6909 443.758 52.8394C442.929 53.9878 442.307 55.3595 441.892 56.9546C441.477 58.5496 441.222 60.3521 441.126 62.3618V69.0132C441.286 71.3739 441.732 73.4953 442.466 75.3774C443.2 77.2277 444.332 78.6951 445.864 79.7798C447.395 80.8644 449.405 81.4067 451.893 81.4067C453.711 81.4067 455.243 81.008 456.487 80.2104C457.731 79.381 458.736 78.2485 459.501 76.813C460.299 75.3774 460.857 73.7186 461.176 71.8364C461.527 69.9543 461.703 67.9285 461.703 65.7593Z" fill="black"/>
<rect x="508" y="39" width="18" height="52" fill="#6DB49B"/>
<rect x="543" y="56" width="18" height="52" transform="rotate(90 543 56)" fill="url(#paint0_linear_926_10)"/>
<defs>
<linearGradient id="paint0_linear_926_10" x1="552" y1="56" x2="552" y2="108" gradientUnits="userSpaceOnUse">
<stop stop-color="#6DB49B" stop-opacity="0.33"/>
<stop offset="1" stop-color="#6DB49B"/>
</linearGradient>
</defs>
</svg>
